# xmcd CD database file
#
# Track frame offsets:
#	150
#	43084
#	81395
#	127449
#	162689
#	209804
#	242073
#
# Disc length: 3764 seconds
#
# Revision: 0
# Processed by: cddbd v1.5.2PL0 Copyright (c) Steve Scherf et al.
# Submitted via: CDex 1.70beta2
#
DISCID=720eb207
DTITLE=Don Menza (tn), Walter Lang (p), Henning Sieverts (b), Harald Rüschenbaum (dr) - Forget The Woman
DYEAR=2011
DGENRE=Jazz
TTITLE0=The Wildest Gal In Town
TTITLE1=I'll Be Seeing You
TTITLE2=Reverie
TTITLE3=Embraceable You
TTITLE4=Nature Boy
TTITLE5=Love Is A Many Splendored Thing
TTITLE6=Forget The Woman
EXTD=YEAR: 2011
EXTT0=
EXTT1=
EXTT2=
EXTT3=
EXTT4=
EXTT5=
EXTT6=
PLAYORDER=
